<svg xmlns="http://www.w3.org/2000/svg" fill="none" viewBox="0 38.64 151.92 46.32" style="max-height: 500px" width="151.92" height="46.32">
<g clip-path="url(#clip0_601_837)">
<path stroke-width="0.214605" stroke="#36450D" fill="#36450D" d="M2.13037 78.9945C6.9619 62.6299 9.25134 56.8826 14.0829 40.5181H17.71L41.2831 81.3712H37.856L32.2121 82.4221L25.7418 81.3712L16.3668 45.296H14.0829L13.2724 82.4221H5.21568L2.13037 78.9945Z"/>
<path fill="url(#paint0_linear_601_837)" d="M24.5371 81.561L18.1582 82.2876H14.6162L15.8203 51.6919L24.5371 81.561ZM17.7236 79.5161H21.2441L17.7236 67.8159V79.5161Z"/>
<path fill="url(#paint1_linear_601_837)" d="M43.5518 45.3438V81.2627L22.625 45.3438H43.5518ZM30.0859 49.7227L38.7422 70.0566V49.7227C36.1859 49.7121 28.5495 49.7227 30.0859 49.7227Z"/>
<path fill="#36450D" d="M45.1743 80.955V45.3608H64.4999V54.5624L50.3291 50.8128V70.2933V80.955H45.1743Z"/>
<path fill="#36450D" d="M54.811 66.8314L57.884 58.7888H60.2138L63.2868 66.8314H60.8364L58.5669 60.0756H59.4908L57.2212 66.8314H54.811ZM56.6387 65.4297L57.2413 63.4765H60.4749L61.0775 65.4297H56.6387Z"/>
<path fill="#36450D" d="M65.8743 62.2126H68.9674V64.2578H65.8743V62.2126ZM66.035 66.8314H63.665V58.7888H69.3791V60.8339H66.035V66.8314Z"/>
<path fill="#36450D" d="M70.1278 66.8314V58.7888H73.5121C74.1682 58.7888 74.7339 58.9114 75.2092 59.1565C75.6913 59.4016 76.0628 59.7539 76.3239 60.2135C76.585 60.6654 76.7156 61.2016 76.7156 61.822C76.7156 62.4424 76.585 62.9786 76.3239 63.4305C76.0628 63.8748 75.6913 64.2156 75.2092 64.4531C74.7339 64.6905 74.1682 64.8092 73.5121 64.8092H71.4434L72.4978 63.6948V66.8314H70.1278ZM74.3355 66.8314L72.6083 63.9016H75.1189L76.8662 66.8314H74.3355ZM72.4978 63.9935L71.4434 62.7641H73.3614C73.6895 62.7641 73.9305 62.6799 74.0845 62.5114C74.2452 62.3429 74.3255 62.1131 74.3255 61.822C74.3255 61.5309 74.2452 61.3012 74.0845 61.1326C73.9305 60.9641 73.6895 60.8799 73.3614 60.8799H71.4434L72.4978 59.6505V63.9935Z"/>
<path fill="#36450D" d="M77.6105 66.8314V58.7888H79.9805V66.8314H77.6105Z"/>
<path fill="#36450D" d="M84.7568 67.0152C84.1944 67.0152 83.6722 66.9156 83.1902 66.7165C82.7148 66.5097 82.2997 66.2186 81.9449 65.8433C81.5968 65.468 81.3256 65.0237 81.1315 64.5105C80.9373 63.9973 80.8402 63.4305 80.8402 62.8101C80.8402 62.1897 80.9373 61.6229 81.1315 61.1097C81.3256 60.5965 81.5968 60.1522 81.9449 59.7769C82.2997 59.4016 82.7148 59.1143 83.1902 58.9152C83.6722 58.7084 84.1944 58.605 84.7568 58.605C85.4463 58.605 86.0556 58.7429 86.5845 59.0186C87.1201 59.2943 87.5619 59.6926 87.9101 60.2135L86.4137 61.7416C86.2062 61.4429 85.9752 61.2131 85.7208 61.0522C85.4731 60.8837 85.1919 60.7995 84.8773 60.7995C84.6296 60.7995 84.4053 60.8454 84.2044 60.9373C84.0036 61.0292 83.8295 61.1633 83.6822 61.3395C83.5416 61.5156 83.4312 61.7301 83.3508 61.9829C83.2705 62.228 83.2303 62.5037 83.2303 62.8101C83.2303 63.1165 83.2705 63.396 83.3508 63.6488C83.4312 63.8939 83.5416 64.1046 83.6822 64.2807C83.8295 64.4569 84.0036 64.5909 84.2044 64.6829C84.4053 64.7748 84.6296 64.8207 84.8773 64.8207C85.1919 64.8207 85.4731 64.7403 85.7208 64.5795C85.9752 64.4109 86.2062 64.1773 86.4137 63.8786L87.9101 65.4067C87.5619 65.9199 87.1201 66.3182 86.5845 66.6016C86.0556 66.8773 85.4463 67.0152 84.7568 67.0152Z"/>
<path fill="#36450D" d="M87.7331 66.8314L90.806 58.7888H93.1358L96.2088 66.8314H93.7585L91.4889 60.0756H92.4128L90.1432 66.8314H87.7331ZM89.5608 65.4297L90.1633 63.4765H93.3969L93.9995 65.4297H89.5608Z"/>
<path fill="#36450D" d="M99.5978 66.8314V58.7888H103.062C103.846 58.7888 104.535 58.9535 105.131 59.2829C105.727 59.6046 106.192 60.0641 106.527 60.6616C106.862 61.259 107.029 61.9714 107.029 62.7986C107.029 63.6335 106.862 64.3535 106.527 64.9586C106.192 65.556 105.727 66.0195 105.131 66.3488C104.535 66.6705 103.846 66.8314 103.062 66.8314H99.5978ZM101.968 64.7173H102.962C103.297 64.7173 103.588 64.6446 103.836 64.499C104.09 64.3535 104.288 64.139 104.428 63.8556C104.569 63.5646 104.639 63.2122 104.639 62.7986C104.639 62.3926 104.569 62.048 104.428 61.7646C104.288 61.4812 104.09 61.2667 103.836 61.1212C103.588 60.9756 103.297 60.9029 102.962 60.9029H101.968V64.7173Z"/>
<path fill="#36450D" d="M110.064 61.776H113.197V63.7292H110.064V61.776ZM110.224 64.7863H113.739V66.8314H107.894V58.7888H113.609V60.8339H110.224V64.7863Z"/>
<path fill="#36450D" d="M116.861 62.2126H119.954V64.2578H116.861V62.2126ZM117.021 66.8314H114.651V58.7888H120.366V60.8339H117.021V66.8314Z"/>
<path fill="#36450D" d="M123.283 61.776H126.417V63.7292H123.283V61.776ZM123.444 64.7863H126.959V66.8314H121.114V58.7888H126.828V60.8339H123.444V64.7863Z"/>
<path fill="#36450D" d="M127.871 66.8314V58.7888H129.82L133.395 63.6833H132.491V58.7888H134.801V66.8314H132.852L129.277 61.9369H130.181V66.8314H127.871Z"/>
<path fill="#36450D" d="M139.578 67.0152C139.015 67.0152 138.493 66.9156 138.011 66.7165C137.536 66.5097 137.121 66.2186 136.766 65.8433C136.418 65.468 136.147 65.0237 135.952 64.5105C135.758 63.9973 135.661 63.4305 135.661 62.8101C135.661 62.1897 135.758 61.6229 135.952 61.1097C136.147 60.5965 136.418 60.1522 136.766 59.7769C137.121 59.4016 137.536 59.1143 138.011 58.9152C138.493 58.7084 139.015 58.605 139.578 58.605C140.267 58.605 140.877 58.7429 141.405 59.0186C141.941 59.2943 142.383 59.6926 142.731 60.2135L141.235 61.7416C141.027 61.4429 140.796 61.2131 140.542 61.0522C140.294 60.8837 140.013 60.7995 139.698 60.7995C139.451 60.7995 139.226 60.8454 139.025 60.9373C138.825 61.0292 138.651 61.1633 138.503 61.3395C138.363 61.5156 138.252 61.7301 138.172 61.9829C138.092 62.228 138.051 62.5037 138.051 62.8101C138.051 63.1165 138.092 63.396 138.172 63.6488C138.252 63.8939 138.363 64.1046 138.503 64.2807C138.651 64.4569 138.825 64.5909 139.025 64.6829C139.226 64.7748 139.451 64.8207 139.698 64.8207C140.013 64.8207 140.294 64.7403 140.542 64.5795C140.796 64.4109 141.027 64.1773 141.235 63.8786L142.731 65.4067C142.383 65.9199 141.941 66.3182 141.405 66.6016C140.877 66.8773 140.267 67.0152 139.578 67.0152Z"/>
<path fill="#36450D" d="M145.585 61.776H148.718V63.7292H145.585V61.776ZM145.745 64.7863H149.26V66.8314H143.415V58.7888H149.129V60.8339H145.745V64.7863Z"/>
<path fill="#36450D" d="M57.4522 80.819V73.7761H55.042V72.7765H60.8565V73.7761H58.4464V80.819H57.4522Z"/>
<path fill="#36450D" d="M62.8641 76.2463H66.4794V77.2229H62.8641V76.2463ZM62.9545 79.8195H67.0518V80.819H61.9503V72.7765H66.9112V73.7761H62.9545V79.8195Z"/>
<path fill="#36450D" d="M71.8113 80.911C71.2757 80.911 70.7803 80.8114 70.325 80.6122C69.8765 80.4054 69.4848 80.1182 69.1501 79.7505C68.822 79.3752 68.5643 78.9386 68.3768 78.4407C68.1894 77.9429 68.0956 77.3952 68.0956 76.7978C68.0956 76.2003 68.1894 75.6527 68.3768 75.1548C68.5643 74.6569 68.8254 74.2241 69.1601 73.8565C69.4949 73.4812 69.8865 73.1939 70.3351 72.9948C70.7903 72.788 71.2858 72.6846 71.8214 72.6846C72.3636 72.6846 72.8624 72.7918 73.3177 73.0063C73.7796 73.2131 74.1713 73.5233 74.4926 73.9369L73.8399 74.6607C73.5721 74.339 73.2708 74.1016 72.9361 73.9484C72.6013 73.7875 72.2431 73.7071 71.8615 73.7071C71.4665 73.7071 71.0983 73.7837 70.7569 73.9369C70.4221 74.0901 70.1309 74.3046 69.8832 74.5803C69.6355 74.8561 69.4413 75.1854 69.3007 75.5684C69.1668 75.9437 69.0999 76.3535 69.0999 76.7978C69.0999 77.242 69.1668 77.6556 69.3007 78.0386C69.4413 78.4139 69.6355 78.7395 69.8832 79.0152C70.1309 79.291 70.4221 79.5054 70.7569 79.6586C71.0983 79.8118 71.4665 79.8884 71.8615 79.8884C72.2431 79.8884 72.6013 79.8118 72.9361 79.6586C73.2708 79.4978 73.5721 79.2527 73.8399 78.9233L74.4926 79.6471C74.1713 80.0607 73.7796 80.3748 73.3177 80.5893C72.8624 80.8037 72.3603 80.911 71.8113 80.911Z"/>
<path fill="#36450D" d="M80.9665 72.7765H81.9707V80.819H80.9665V72.7765ZM76.9295 80.819H75.9252V72.7765H76.9295V80.819ZM81.0569 77.2344H76.829V76.2348H81.0569V77.2344Z"/>
</g>
<defs>
<linearGradient gradientUnits="userSpaceOnUse" y2="51.6919" x2="19.5767" y1="82.2876" x1="19.5767" id="paint0_linear_601_837">
<stop stop-color="#36450D"/>
<stop stop-color="#85AB20" offset="1"/>
</linearGradient>
<linearGradient gradientUnits="userSpaceOnUse" y2="81.2627" x2="33.0884" y1="45.3437" x1="33.0884" id="paint1_linear_601_837">
<stop stop-color="#36450D"/>
<stop stop-color="#85AB20" offset="1"/>
</linearGradient>
<clipPath id="clip0_601_837">
<rect fill="white" height="120" width="150"/>
</clipPath>
</defs>
</svg>